<svg preserveAspectRatio="none" width="100%" height="100%" overflow="visible" style="display: block;" viewBox="0 0 24.3145 28.9421" fill="none" xmlns="http://www.w3.org/2000/svg">
<g id="Frame 2147229283">
<path id="Vector" d="M18.3505 12.0991V12.1001C18.4463 12.3498 18.5941 12.577 18.7832 12.7661C18.9722 12.955 19.1987 13.1021 19.4482 13.1978V13.1968L22.8515 14.5054L19.4472 15.8149C19.1978 15.9106 18.9711 16.0577 18.7822 16.2466C18.5934 16.4354 18.4471 16.6623 18.3515 16.9116L17.0419 20.3159L15.7334 16.9116H15.7324C15.6608 16.7249 15.5608 16.5509 15.4355 16.396L15.3017 16.2466L15.1523 16.1128C14.9971 15.9873 14.8229 15.8866 14.6357 15.8149H14.6367L11.2314 14.5054L14.6347 13.1968L14.6357 13.1978C14.8854 13.102 15.1126 12.9552 15.3017 12.7661C15.4906 12.5772 15.6376 12.3504 15.7334 12.1011L17.0419 8.69678L18.3505 12.0991Z" fill="var(--fill-0, #0A5136)" stroke="var(--stroke-0, #0A5136)" stroke-width="2.60508"/>
<path id="Vector_2" d="M15.0085 24.6546V26.3734C15.0085 26.8284 14.7747 27.3111 14.3281 27.398C14.1604 27.4307 13.9187 27.4307 13.751 27.398C13.5359 27.3562 13.3808 27.2754 13.0706 27.1137C10.2024 25.6194 1.52003 21.8213 1.52003 15.082V9.36812C1.52003 8.16032 1.52003 7.55643 1.71757 7.03732C1.89207 6.57874 2.17563 6.16954 2.54375 5.84513C2.96045 5.4779 3.5259 5.26586 4.65678 4.84177L13.1909 1.69578C13.825 1.45799 14.2698 1.46386 14.8883 1.69578V4.62805" stroke="var(--stroke-0, #0A5136)" stroke-width="3.03926" stroke-linecap="round" stroke-linejoin="round"/>
</g>
</svg>
