<svg preserveAspectRatio="none" width="100%" height="100%" overflow="visible" style="display: block;" viewBox="0 0 12.2029 14.5253" fill="none" xmlns="http://www.w3.org/2000/svg">
<g id="Frame 2147229283">
<path id="Vector" d="M9.20968 6.07269C9.25774 6.19795 9.33161 6.31181 9.42648 6.40668C9.4976 6.47779 9.57943 6.53698 9.66867 6.58246L9.76046 6.62348L11.4675 7.27973L9.76144 7.93598C9.66719 7.97192 9.5798 8.02322 9.50167 8.08637L9.42648 8.15375C9.3318 8.24844 9.25767 8.36177 9.20968 8.48676L8.55246 10.1938L7.89523 8.48676C7.85935 8.3934 7.8094 8.30642 7.74679 8.22894L7.67941 8.15375L7.60421 8.08637C7.52602 8.02317 7.43781 7.97193 7.34347 7.93598L5.63742 7.27973L7.34542 6.62348C7.4707 6.57543 7.58453 6.50155 7.67941 6.40668C7.75052 6.33557 7.80971 6.25371 7.85519 6.16449L7.89621 6.07269L8.55246 4.36371L9.20968 6.07269Z" fill="var(--fill-0, #0A5136)" stroke="var(--stroke-0, #0A5136)" stroke-width="1.30742"/>
<path id="Vector_2" d="M7.53239 12.3735V13.2362C7.53239 13.4645 7.41505 13.7068 7.19092 13.7504C7.10676 13.7668 6.98545 13.7668 6.9013 13.7504C6.79333 13.7294 6.71547 13.6888 6.55982 13.6077C5.12033 12.8577 0.762868 10.9516 0.762868 7.5693V4.70163C0.762868 4.09546 0.762867 3.79238 0.862005 3.53185C0.949581 3.3017 1.0919 3.09634 1.27665 2.93352C1.48578 2.74922 1.76956 2.64281 2.33712 2.42997L6.62017 0.851067C6.93842 0.731728 7.16165 0.734674 7.47204 0.851067V2.3227" stroke="var(--stroke-0, #0A5136)" stroke-width="1.52533" stroke-linecap="round" stroke-linejoin="round"/>
</g>
</svg>
