<svg preserveAspectRatio="none" width="100%" height="100%" overflow="visible" style="display: block;" viewBox="0 0 90.8845 70.9059" fill="none" xmlns="http://www.w3.org/2000/svg">
<g id="Mask group">
<mask id="mask0_0_1255" style="mask-type:alpha" maskUnits="userSpaceOnUse" x="0" y="0" width="91" height="71">
<rect id="Rectangle 1430106939" x="1.07288e-07" width="90.8845" height="70.9059" fill="url(#paint0_linear_0_1255)"/>
</mask>
<g mask="url(#mask0_0_1255)">
<g id="shape-10" opacity="0.6" filter="url(#filter0_i_0_1255)">
<path d="M60.311 39.7717L67.7328 25.7826L60.311 11.7935H45.4674L38.0457 25.7826L45.4674 39.7717H60.311Z" fill="var(--fill-0, #FF8E21)"/>
<path d="M75.1545 11.7935L82.5763 -2.19555L75.1545 -16.1846H60.311L52.8892 -2.19555L60.311 11.7935H75.1545Z" fill="var(--fill-0, #FF8E21)"/>
<path d="M89.9981 39.7717L97.4199 25.7826L89.9981 11.7935H75.1545L67.7328 25.7826L75.1545 39.7717H89.9981Z" fill="var(--fill-0, #FF8E21)"/>
<path d="M75.1545 67.7499L82.5763 53.7608L75.1545 39.7717H60.311L52.8892 53.7608L60.311 67.7499H75.1545Z" fill="var(--fill-0, #FF8E21)"/>
<path d="M45.4674 67.7499L52.8892 53.7608L45.4674 39.7717H30.6239L23.2021 53.7608L30.6239 67.7499H45.4674Z" fill="var(--fill-0, #FF8E21)"/>
<path d="M30.6239 39.7717L38.0457 25.7826L30.6239 11.7935H15.7803L8.35855 25.7826L15.7803 39.7717H30.6239Z" fill="var(--fill-0, #FF8E21)"/>
<path d="M45.4674 11.7935L52.8892 -2.19555L45.4674 -16.1846H30.6239L23.2021 -2.19555L30.6239 11.7935H45.4674Z" fill="var(--fill-0, #FF8E21)"/>
</g>
</g>
</g>
<defs>
<filter id="filter0_i_0_1255" x="8.35855" y="-16.1846" width="89.0613" height="86.9033" filterUnits="userSpaceOnUse" color-interpolation-filters="sRGB">
<feFlood flood-opacity="0" result="BackgroundImageFix"/>
<feBlend mode="normal" in="SourceGraphic" in2="BackgroundImageFix" result="shape"/>
<feColorMatrix in="SourceAlpha" type="matrix" values="0 0 0 0 0 0 0 0 0 0 0 0 0 0 0 0 0 0 127 0" result="hardAlpha"/>
<feOffset dy="2.96873"/>
<feGaussianBlur stdDeviation="5.93746"/>
<feComposite in2="hardAlpha" operator="arithmetic" k2="-1" k3="1"/>
<feColorMatrix type="matrix" values="0 0 0 0 0 0 0 0 0 0 0 0 0 0 0 0 0 0 0.15 0"/>
<feBlend mode="normal" in2="shape" result="effect1_innerShadow_0_1255"/>
</filter>
<linearGradient id="paint0_linear_0_1255" x1="83.126" y1="3.48379" x2="14.434" y2="77.7975" gradientUnits="userSpaceOnUse">
<stop stop-color="#D9D9D9"/>
<stop offset="1" stop-color="#D9D9D9" stop-opacity="0"/>
</linearGradient>
</defs>
</svg>
