<svg xmlns="http://www.w3.org/2000/svg" viewBox="0 0 555 171.6"><defs><style>.cls-1{fill:#0668b2}</style></defs><g id="Layer_1"><path d="M315.1 42.4h5.4v16.3h20.4V42.4h5.4V82h-5.4V63.5h-20.4V82h-5.4zm43.6 0h28.7v4.8h-23.5v12.1h21.7v4.5h-21.7v13.5h23.9V82h-29.1zm51.1 0h6L430.2 82h-5.9l-4.1-11.9h-15.5L400.4 82h-5.5zm8.9 23.4-6.1-17.5-6.3 17.5zm19.7-23.4h5.4v34.9h19.8V82h-25.2zm58.7 0v4.7h-13.3V82h-5.4V47.1H465v-4.7zm8.4 0h5.4v16.3h20.4V42.4h5.4V82h-5.4V63.5h-20.4V82h-5.4z" class="cls-1"/><path d="M315.1 101.1h3.5v25.5h-3.5z" style="fill:#3b68ab"/><path d="M326.4 101.1h4.1l12.7 20.7v-20.7h3.3v25.6h-3.9L329.7 106v20.7h-3.3zm30.1 17.3c0 1.4.4 2.6 1 3.5 1.1 1.7 3.1 2.5 5.8 2.5s2.4-.2 3.4-.5q3-1.05 3-3.9c0-2.85-.4-2.4-1.3-3s-2.2-1.1-4-1.5l-3.3-.8c-2.2-.5-3.7-1.1-4.6-1.7q-2.4-1.65-2.4-4.8c0-3.15.8-4.2 2.3-5.7 1.6-1.5 3.7-2.2 6.6-2.2s4.8.6 6.6 1.9 2.7 3.3 2.7 6.2H369c-.2-1.4-.5-2.4-1.1-3.1-1-1.3-2.7-2-5.2-2s-3.4.4-4.2 1.3c-.9.8-1.3 1.9-1.3 3s.5 2.2 1.5 2.8c.7.4 2.2.8 4.5 1.4l3.5.8c1.7.4 3 .9 3.9 1.6 1.6 1.2 2.4 2.9 2.4 5.2s-1 4.9-3 6.1-4.3 1.8-7 1.8-5.5-.8-7.3-2.4-2.6-3.8-2.6-6.6h3.3Zm27.4-17.3v15.8c0 1.9.4 3.4 1.1 4.6 1 1.9 2.8 2.8 5.3 2.8s5-1 6-3c.6-1.1.9-2.6.9-4.4v-15.8h3.5v14.3c0 3.1-.4 5.6-1.3 7.3-1.6 3.1-4.5 4.6-8.8 4.6s-7.3-1.5-8.8-4.6c-.9-1.7-1.3-4.1-1.3-7.3v-14.3h3.5Zm24.5 0H420c1.9 0 3.5.3 4.7.8 2.4 1.1 3.5 3.1 3.5 6s-.3 2.8-1 3.8c-.6 1-1.5 1.8-2.7 2.3 1 .4 1.7.9 2.3 1.6.5.7.8 1.7.8 3.2v3.4c.2 1 .2 1.7.4 2.2.2.8.6 1.3 1.1 1.6v.6h-4.2q-.15-.3-.3-.9c0-.4-.1-1-.2-2l-.2-4.3c0-1.7-.7-2.8-1.8-3.4-.6-.3-1.7-.5-3-.5h-7.7v11h-3.5V101Zm11.3 11.7c1.6 0 2.8-.3 3.7-1s1.4-1.8 1.4-3.5-.6-3.1-1.9-3.7c-.7-.4-1.6-.5-2.8-.5h-8.2v8.7zm23.7-11.7h3.9l9.3 25.5h-3.8l-2.7-7.7h-10l-2.8 7.7h-3.6l9.6-25.5Zm5.7 15.1-3.9-11.3-4.1 11.3zm12.7-15.1h4.1l12.7 20.7v-20.7h3.3v25.6H478L465.1 106v20.7h-3.3zm46 1.9c1.8 1.7 2.7 3.6 2.9 5.8h-3.4c-.4-1.7-1.1-3-2.2-3.9-1.1-1-2.7-1.4-4.7-1.4s-4.5.9-6 2.7-2.3 4.5-2.3 8.1.7 5.4 2.1 7.3 3.4 2.8 6.1 2.8 4.4-1 5.7-2.9c.7-1 1.2-2.4 1.6-4.1h3.4c-.3 2.7-1.3 5-3 6.8q-3 3.3-8.1 3.3c-5.1 0-5.4-.9-7.4-2.7-2.6-2.4-3.9-6.1-3.9-11s1-6.8 3-9.3c2.1-2.6 5.1-3.9 8.8-3.9s5.7.8 7.5 2.6m10-2.1h18.5v3.1h-15.2v7.8h14.1v3h-14.1v8.6h15.5v3.1h-18.8z" class="cls-1"/><path d="M3.2 8h300.9v154.5H3.2z" style="fill:#fbdf00"/><path d="M87.2 62.7c-1.4-.5-2.9-.9-4.7-1.4-1.7-.5-3.7-.9-5.8-1.3-2.2-.4-4.6-.5-7.1-.5-3.1 0-6.3.5-9.3 1.4-3.1.9-5.9 2.3-8.7 4.1-2.7 1.9-5.1 4.2-7.2 7s-3.7 6.1-4.9 9.9q-1.8 5.7-1.8 12.9 0 7.65 2.1 13.2c1.4 3.8 3.2 6.9 5.5 9.5s4.8 4.7 7.6 6.2c2.8 1.6 5.6 2.7 8.5 3.4s5.6 1 8.3 1 5.3-.2 7.5-.5c2.3-.4 4.4-.8 6.3-1.3s3.5-1 5-1.5v-7.4c-1.4.6-2.9 1.2-4.6 1.9-1.7.6-3.7 1.2-5.9 1.6s-4.6.7-7.3.7c-4.6 0-8.4-.8-11.7-2.4-3.2-1.5-5.9-3.6-7.9-6.2s-3.5-5.6-4.5-8.8c-1-3.3-1.4-6.6-1.4-10.1s.5-6.8 1.5-10.2c1-3.3 2.5-6.3 4.5-8.9 2-2.7 4.6-4.8 7.7-6.4s6.8-2.4 11-2.5c2.5 0 4.8.2 6.8.7 2 .4 3.9 1 5.7 1.7 1.7.7 3.4 1.3 4.9 2.1v-7.8Zm65.7 52.7c-.5.4-1.2 1-2 1.6-.8.7-1.7 1.3-2.7 2-1 .6-1.9 1.2-2.8 1.7s-1.5.7-2.1.7c-.4 0-.8-.1-.9-.2-.2-.2-.3-.3-.4-.5 0-.2 0-.6-.1-1.3V81c0-2.5 0-4.7-.2-6.4-.2-1.8-.5-3.4-1.1-4.8s-1.5-2.8-2.8-4.2-2.9-2.6-4.8-3.4c-1.9-.9-3.9-1.5-5.9-1.9-2.1-.4-4-.6-5.9-.6-2.5 0-4.8.3-6.9.8s-4.1 1.1-5.9 1.9-3.4 1.5-4.8 2.3q-2.1 1.2-3.6 2.1V74c2.4-1.7 4.6-3.1 6.7-4.3s4.2-2.1 6.4-2.7q3.3-.9 7.2-.9c3.6 0 6.5.6 8.7 1.7 2.1 1.1 3.7 2.7 4.6 4.6.9 2 1.3 4.2 1.3 6.8v8.4c-1.5 0-3.6.2-6 .4-2.4.3-5.1.7-8 1.3s-5.8 1.4-8.7 2.5-5.5 2.5-7.9 4.3-4.3 3.9-5.8 6.5-2.2 5.7-2.2 9.3c0 2.4.5 4.6 1.4 6.6 1 2 2.2 3.8 3.9 5.3 1.6 1.5 3.5 2.7 5.7 3.5 2.1.8 4.4 1.2 6.9 1.3 2.6 0 4.9-.3 7-.9 2.2-.6 4.1-1.3 5.9-2.2 1.7-.9 3.3-1.8 4.6-2.7s2.4-1.7 3.2-2.4c.1 1.7.3 3.1.5 4.4.2 1.2.7 2.2 1.3 2.8.6.7 1.6 1 3 1q2.25 0 5.4-1.8c2.1-1.2 4.8-2.9 7.8-5.1v-5.9Zm-18.1-1.7c-1 .9-2.1 1.8-3.3 2.9-1.3 1-2.7 1.9-4.2 2.8s-3.2 1.6-5 2.2-3.8.8-5.9.8q-1.95 0-4.2-.6c-1.5-.4-2.9-1-4.3-1.9-1.3-.9-2.4-2-3.3-3.4s-1.3-3.1-1.3-5q0-3 1.2-5.4c.8-1.6 1.8-3.1 3.1-4.4s2.7-2.5 4.3-3.4c1.6-1 3.2-1.8 4.9-2.5 2.1-.8 4.3-1.4 6.5-1.8 2.3-.4 4.4-.6 6.4-.8 2-.1 3.8-.2 5.2-.2v20.7Zm73.5-46.5c-.9-.8-1.8-1.6-2.9-2.4-1.1-.9-2.3-1.7-3.6-2.6-1.3-.8-2.7-1.5-4.1-2s-2.9-.8-4.5-.8c-2.2 0-4.4.5-6.4 1.5-2.1 1-4 2.3-5.8 3.8s-3.5 3.2-5 4.9q-2.25 2.55-3.9 4.8c-1 1.5-1.9 2.7-2.4 3.6V60.6h-7.1v66.1h7.1V85.2c1.4-2.4 3-4.7 4.7-6.9s3.4-4.2 5.3-6 3.7-3.2 5.6-4.2 3.8-1.6 5.8-1.6q2.4 0 4.8 1.2c1.6.8 3.1 1.7 4.5 2.8s2.7 2.2 3.8 3.2l4.1-6.6Zm61.2 24c0-2.3-.2-4.7-.6-7.1-.3-2.4-1.1-4.9-2.2-7.5-.8-2-2-4-3.5-6s-3.3-3.9-5.5-5.6-4.7-3-7.6-4.1c-2.9-1-6.2-1.5-9.9-1.6-4.8 0-9 .9-12.8 2.8-3.7 1.8-6.9 4.3-9.5 7.4-2.6 3.2-4.6 6.7-6 10.7q-2.1 6-2.1 12.6c0 6.6.4 7 1.4 10.4.9 3.4 2.2 6.6 4 9.6s4 5.6 6.6 7.9c2.7 2.3 5.7 4.1 9.2 5.3 3.5 1.3 7.4 1.9 11.7 2 3.7 0 7-.4 10.1-1.2s5.9-1.9 8.4-3.2 4.9-2.8 6.9-4.4v-7.9c-1 .9-2.3 1.9-3.7 3-1.5 1.1-3.3 2.3-5.3 3.3-2.1 1.1-4.4 2-7 2.7s-5.5 1.1-8.6 1.1c-2.6 0-5.1-.4-7.6-1.1-2.5-.8-4.9-1.9-7.2-3.5-2.2-1.6-4.2-3.5-6-5.9-1.7-2.4-3-5.2-3.9-8.5s-1.3-7-1.2-11.2h51.8Zm-51.1-5.6c.6-3.4 1.7-6.4 3.2-8.9s3.3-4.6 5.3-6.2 4.2-2.8 6.5-3.6 4.5-1.2 6.8-1.2c3.7 0 7 .9 10 2.5 2.9 1.7 5.3 3.9 7 6.7q1.95 3.15 2.7 5.7c.6 1.8 1 3.4 1.2 4.9h-42.7Zm-8.5-43.2h59.6v6.8h-59.6zm342.3-11.6c0 3.5-2.8 6.3-6.4 6.3s-6.4-2.8-6.4-6.3 2.8-6.2 6.5-6.2 6.3 2.7 6.3 6.2m-11.2 0c0 2.8 2.1 5 4.9 5 2.7 0 4.7-2.2 4.7-4.9s-2.1-5-4.8-5-4.8 2.2-4.8 5Zm3.8 3.3h-1.4v-6.2c.6 0 1.4-.2 2.4-.2s1.7.2 2.1.5.6.7.6 1.3-.6 1.3-1.3 1.5c.6.3.9.8 1.1 1.6.2.9.3 1.3.5 1.5h-1.5c-.2-.2-.3-.8-.5-1.5-.1-.6-.5-.9-1.3-.9h-.7v2.5Zm.1-3.5h.7c.8 0 1.4-.3 1.4-.9s-.4-.9-1.3-.9h-.8z" class="cls-1"/></g></svg>