<svg xmlns="http://www.w3.org/2000/svg" xml:space="preserve" width="165" height="40"><defs><clipPath id="a" clipPathUnits="userSpaceOnUse"><path d="M452.537 724.559H576V756H452.537z"/></clipPath><clipPath id="b" clipPathUnits="userSpaceOnUse"><path d="M453.815 726.326h120.87v27.629h-120.87z"/></clipPath><clipPath id="c" clipPathUnits="userSpaceOnUse"><path d="M452.537 724.559H576V756H452.537z"/></clipPath></defs><g clip-path="url(#a)" transform="matrix(1.34987 0 0 -1.37234 -611.728 1036.165)"><path d="m0 0-3.434-1.83-2.282 1.357s.472.288 1.007.637c.535.37.309.432.021.761-.556.391-2.982 1.954-2.982 1.954l.782.39-.72 1.687 1.707.041.041.987s2.652-1.707 3.063-1.851c.432-.144.761.082.823.679v3.742l1.069-.493.802 1.418.041.062a6.7 6.7 0 0 1-4.071 1.357c-3.742 0-6.786-3.023-6.786-6.765a6.78 6.78 0 0 1 6.786-6.786c1.542 0 2.981.514 4.112 1.399z" style="fill:#1a4680;fill-opacity:1;fill-rule:evenodd;stroke:none" transform="translate(522.576 737.757)"/><path d="M0 0h-.411v-6.518L-5.49-3.516l-.206-.35L-.35-7.032l.35.308z" style="fill:#1a4680;fill-opacity:1;fill-rule:evenodd;stroke:none" transform="translate(522.514 745.16)"/><path d="M0 0h3.208l2.529 9.418H2.529z" style="fill:#1a4680;fill-opacity:1;fill-rule:evenodd;stroke:none" transform="translate(471.19 735.166)"/><path d="M0 0h3.208l2.529 9.418H2.529z" style="fill:#1a4680;fill-opacity:1;fill-rule:evenodd;stroke:none" transform="translate(487.742 735.166)"/><path d="M0 0h3.228l2.509 9.418H2.529z" style="fill:#1a4680;fill-opacity:1;fill-rule:evenodd;stroke:none" transform="translate(504.275 735.166)"/><path d="M0 0h3.249c.411 2.118-.967 3.208-4.133 3.208-3.64 0-6.107-1.789-6.951-4.874-.76-2.837.741-4.544 4.175-4.544 3.495 0 5.552 1.09 6.395 3.496H-.494c-.452-1.07-1.295-1.625-2.447-1.625-1.542 0-2.159.987-1.686 2.776.494 1.871 1.686 2.899 3.249 2.899C-.37 1.336.103.905 0 0" style="fill:#1a4680;fill-opacity:1;fill-rule:evenodd;stroke:none" transform="translate(484.72 741.355)"/><path d="M0 0h3.208c.432 2.118-.946 3.208-4.092 3.208-3.66 0-6.148-1.789-6.971-4.874-.761-2.837.74-4.544 4.174-4.544 3.475 0 5.532 1.09 6.416 3.496H-.514c-.452-1.07-1.295-1.625-2.447-1.625-1.563 0-2.159.987-1.665 2.776.493 1.871 1.665 2.899 3.228 2.899C-.411 1.336.062.905 0 0" style="fill:#1a4680;fill-opacity:1;fill-rule:evenodd;stroke:none" transform="translate(501.293 741.355)"/><path d="M0 0h.781l.206-.103.226.103h.884v-8.245s2.838 0 3.229.102c-.165-.411-.124-.822.041-1.028H.021z" style="fill:#1a4680;fill-opacity:1;fill-rule:evenodd;stroke:none" transform="translate(524.612 744.295)"/><path d="M0 0c-.37.021-1.727.35-1.789 2.694C-1.707 4.812-.596 5.675 0 5.696c.391.02 1.707-.329 1.707-2.9C1.707.72.576-.062 0 0m.124 6.251c-.987 0-3.496-.329-3.496-3.434C-3.372-.823 0-.432 0-.432c1.152 0 3.29.309 3.414 3.187 0 3.64-3.29 3.496-3.29 3.496" style="fill:#1a4680;fill-opacity:1;fill-rule:evenodd;stroke:none" transform="translate(533.885 735.474)"/><path d="M0 0c-.35.041-1.583.329-1.624 2.509C-1.563 4.462-.535 5.244 0 5.264c.37.021 1.583-.308 1.583-2.673C1.583.699.535-.041 0 0m.781 5.881c-1.336.123-2.117-.535-2.117-.535v4.257h-.679l-.206-.083-.226.103-.781-.02.02-10.014h.802s.35.288.617.576C-1.11-.576-.103-.514.576-.514c.678 0 2.796.658 2.796 3.249 0 2.611-1.748 3.002-2.591 3.146" style="fill:#1a4680;fill-opacity:1;fill-rule:evenodd;stroke:none" transform="translate(552.536 735.618)"/><path d="M0 0c-.473-.041-1.419.679-1.419 2.591 0 2.365 1.111 2.673 1.419 2.673.494-.021 1.419-.822 1.48-2.776C1.44.329.309.02 0 0m2.283 9.52-.206-.102-.206.082h-.596V5.243s-.884.72-2.2.597c-.864-.124-2.715-.823-2.715-3.228C-3.64.02-2.221-.823-.761-.884c.679-.021 1.357-.062 2.036.678 0 0 .02-.411.02-.555h1.687V9.52z" style="fill:#1a4680;fill-opacity:1;fill-rule:evenodd;stroke:none" transform="translate(571.701 735.721)"/><path d="M0 0h.596l.185-.144L.946 0h.534v-.432c.453.391 2.571 1.234 3.784-.35 0 0 .494.885 2.324.885C8.739.021 9.706-.802 9.706-1.933v-4.606s-1.049.226-1.625 0v4.051c0 1.275-.596 1.768-1.172 1.768-.555-.041-1.295-.617-1.295-1.85v-3.969s-1.049.206-1.522 0v3.989S4.236-.761 2.941-.761c-1.173 0-1.296-1.275-1.296-1.83v-3.948S.514-6.395.021-6.56z" style="fill:#1a4680;fill-opacity:1;fill-rule:evenodd;stroke:none" transform="translate(538.389 741.602)"/><path d="M0 0v-3.146s-1.234.144-1.727-.021v6.56h.761l.185-.144.185.144H0v-.556c.288-.082.391.802 2.468.556 0-.247-.103-1.707-.103-1.707s-.473-.144-.884.082C1.152 1.953.021 1.624 0 0" style="fill:#1a4680;fill-opacity:1;fill-rule:evenodd;stroke:none" transform="translate(565.285 738.21)"/></g><g clip-path="url(#b)" transform="matrix(1.34987 0 0 -1.37234 -611.728 1036.165)"><path d="M0 0c-.165-.411-.905-.987-1.419-.802-.308.103-.843.37-.761 1.419.021.411.411.822 2.18 1.213zm1.686-.494v3.619c0 1.974-1.152 1.995-2.447 2.139-1.768 0-2.365-.658-2.57-.864v-.699h.74c.206.329.411.596.864.822.678.288 1.377-.205 1.645-.699.226-.39.287-1.398-.432-1.521-2.118-.247-2.92-.782-3.167-1.316-.822-2.283 1.357-2.488 1.357-2.488.638-.165 2.159.041 2.488.534.309-.699 2.201-.473 2.262-.185v.329c-.616-.041-.658.021-.74.329" style="fill:#1a4680;fill-opacity:1;fill-rule:evenodd;stroke:none" transform="translate(560.165 736.38)"/><path d="M0 0c4.31 4.26 9.543 5.382 11.61 2.441 2.068-2.914.249-8.794-4.061-13.055a17.7 17.7 0 0 0-2.541-2.118c-2.1-1.421-4.57-2.081-6.079-1.943-1.221.1-2.267.648-2.965 1.595C-6.154-10.14-4.31-4.31 0 0" style="fill:#fff;fill-opacity:1;fill-rule:evenodd;stroke:none" transform="translate(458.732 749.87)"/><path d="M0 0c4.31 4.26 9.543 5.382 11.61 2.441 2.068-2.914.249-8.794-4.061-13.055a17.7 17.7 0 0 0-2.541-2.118c-2.766-.996.922 8.77 1.246 9.593.374 1.171-.797 1.594-1.844 1.295C3.413-2.168.723-4.136.025-4.933c-.673-.822-.1-.997.349-.748.872.524 1.669.623 2.043.175.199-.274.125-1.57-.249-3.364-.299-1.121-.623-2.341-1.171-3.637-.573-1.221-1.246-2.143-2.068-2.168-1.221.1-2.267.648-2.965 1.595C-6.154-10.14-4.31-4.31 0 0m8.048 2.417c-.499.473-1.62.224-2.492-.648C4.684.872 4.41-.224 4.908-.723c.474-.498 1.62-.199 2.467.673s1.171 1.969.673 2.467" style="fill:#f47216;fill-opacity:1;fill-rule:evenodd;stroke:none" transform="translate(458.732 749.87)"/><path d="M0 0c3.513 2.267 7.101 2.466 8.745.174.723-1.071.947-2.466.797-4.086-.598-2.217-1.993-4.534-4.036-6.577-1.395-1.37-2.915-2.342-4.36-2.94.175 2.591 2.018 7.424 2.242 8.022.374 1.171-.797 1.595-1.843 1.296C.548-4.435-2.143-6.403-2.84-7.2c-.673-.823-.1-.997.349-.748.871.523 1.669.623 2.043.174.199-.274.124-1.569-.25-3.363a25 25 0 0 0-.897-2.915c-1.395-.05-2.566.449-3.338 1.445-1.844 2.541-.274 7.699 3.488 11.386C-.947-.748-.448-.324 0 0m5.182.149c-.498.474-1.619.225-2.491-.647-.872-.897-1.146-1.993-.648-2.492.473-.498 1.619-.199 2.467.673.847.872 1.171 1.968.672 2.466" style="fill:#ad252b;fill-opacity:1;fill-rule:evenodd;stroke:none" transform="translate(461.597 752.138)"/></g><g clip-path="url(#c)" transform="matrix(1.34987 0 0 -1.37234 -611.728 1036.165)"><path d="M0 0v1.588h-1.293v-.543h.628V.29C-.86.238-1.044.238-1.203.238c-.67 0-1.044.411-1.044 1.207 0 .808.374 1.314.928 1.314.427 0 .681-.243.681-.648H0v.058c0 .611-.459 1.049-1.261 1.049-1.066 0-1.688-.68-1.688-1.799 0-1.082.622-1.688 1.715-1.688.49 0 .886.079 1.234.269" style="fill:#1a4680;fill-opacity:1;fill-rule:evenodd;stroke:none" transform="translate(485.45 726.595)"/><path d="M0 0v-3.381h2.163v.553H.691v.923h1.334v.529H.691v.801h1.451V0z" style="fill:#1a4680;fill-opacity:1;fill-rule:evenodd;stroke:none" transform="translate(488.142 729.76)"/><path d="M0 0v-3.381h.617v2.786l1.261-2.786h.939V0H2.2v-2.742L.997 0z" style="fill:#1a4680;fill-opacity:1;fill-rule:evenodd;stroke:none" transform="translate(492.878 729.76)"/><path d="M0 0v-3.381h2.194v.553H.691v.923h1.334v.529H.691v.801h1.445V0z" style="fill:#1a4680;fill-opacity:1;fill-rule:evenodd;stroke:none" transform="translate(498.413 729.76)"/><path d="M0 0v3.381h1.351c.744 0 1.086-.273 1.086-.859 0-.49-.185-.718-.643-.829.38-.057.511-.216.564-.653l.048-.486C2.437.291 2.49.117 2.575 0H1.83a.86.86 0 0 0-.078.396l-.053.517c-.037.396-.058.422-.412.422H.67V0zm.67 1.906h.427c.459 0 .655.072.655.447 0 .433-.196.48-.655.48H.67z" style="fill:#1a4680;fill-opacity:1;fill-rule:evenodd;stroke:none" transform="translate(503.15 726.378)"/><path d="m0 0 1.155 3.381h.829L3.075 0h-.696l-.21.723H.887L.633 0zm1.071 1.261h.913l-.428 1.451z" style="fill:#1a4680;fill-opacity:1;fill-rule:evenodd;stroke:none" transform="translate(507.897 726.378)"/><path d="M0 0v-3.381h2.148v.553H.697V0z" style="fill:#1a4680;fill-opacity:1;fill-rule:evenodd;stroke:none" transform="translate(513.393 729.76)"/><path d="M520.9 726.378h.665v3.381h-.665z" style="fill:#1a4680;fill-opacity:1;fill-rule:evenodd;stroke:none"/><path d="M0 0v-3.381h.607v2.786l1.229-2.786h.966V0h-.613v-2.742L.988 0z" style="fill:#1a4680;fill-opacity:1;fill-rule:evenodd;stroke:none" transform="translate(524.287 729.76)"/><path d="M0 0h-.675v-.058c0-.749.433-1.093 1.261-1.093.859 0 1.314.369 1.314.997 0 .586-.334.775-.993.981-.537.185-.838.296-.838.596 0 .265.19.454.549.454.31 0 .501-.189.522-.564h.622v.021c0 .617-.401 1.002-1.118 1.002-.781 0-1.24-.411-1.24-1.002 0-.264.11-.48.301-.628C-.084.537.122.484.37.405c.537-.221.827-.301.827-.611 0-.275-.21-.497-.553-.497C.206-.703 0-.46 0 0" style="fill:#1a4680;fill-opacity:1;fill-rule:evenodd;stroke:none" transform="translate(530.343 727.477)"/><path d="M0 0h-.707v-2.099c0-.917.46-1.335 1.388-1.335.955 0 1.377.418 1.377 1.335V0h-.644v-2.12c0-.512-.222-.781-.696-.781-.485 0-.718.243-.718.754z" style="fill:#1a4680;fill-opacity:1;fill-rule:evenodd;stroke:none" transform="translate(535.492 729.76)"/><path d="M0 0v3.381h1.319c.744 0 1.098-.273 1.098-.859 0-.49-.191-.718-.623-.829.374-.057.485-.216.538-.653l.052-.486C2.417.291 2.469.117 2.58 0h-.75c-.083.117-.083.243-.114.396l-.028.517c-.052.396-.074.422-.422.422h-.6V0zm.666 1.906h.411c.453 0 .67.072.67.447 0 .433-.217.48-.67.48H.666z" style="fill:#1a4680;fill-opacity:1;fill-rule:evenodd;stroke:none" transform="translate(540.255 726.378)"/><path d="m0 0 1.151 3.381h.843L3.123 0h-.728l-.217.723H.913L.644 0zm1.082 1.261h.933l-.459 1.451z" style="fill:#1a4680;fill-opacity:1;fill-rule:evenodd;stroke:none" transform="translate(544.972 726.378)"/><path d="M0 0v-3.381h.606v2.786l1.267-2.786h.944V0h-.618v-2.742L.991 0z" style="fill:#1a4680;fill-opacity:1;fill-rule:evenodd;stroke:none" transform="translate(550.474 729.76)"/><path d="M0 0c.801 0 1.272.369 1.324 1.049H.675C.649.691.406.475.058.475c-.559 0-.828.412-.828 1.271 0 .828.29 1.224.797 1.224.379 0 .622-.206.648-.532h.622C1.272 3.076.801 3.487 0 3.487c-.934 0-1.472-.648-1.472-1.773C-1.472.591-.971 0 0 0" style="fill:#1a4680;fill-opacity:1;fill-rule:evenodd;stroke:none" transform="translate(557.332 726.326)"/><path d="M0 0v-3.381h2.168v.553H.68v.923h1.345v.529H.68v.801h1.429V0z" style="fill:#1a4680;fill-opacity:1;fill-rule:evenodd;stroke:none" transform="translate(561.205 729.76)"/><path d="M471.189 727.926h9.828v.287h-9.828zm93.669 0h9.828v.287h-9.828z" style="fill:#1a4680;fill-opacity:1;fill-rule:evenodd;stroke:none"/></g></svg>