<svg xmlns="http://www.w3.org/2000/svg" xml:space="preserve" width="222.68" height="129.373" viewBox="0 0 222.68 129.373"><defs><clipPath id="a" clipPathUnits="userSpaceOnUse"><path d="M0 97.03h167.01V0H0Z"/></clipPath></defs><path d="M0 .011h167V97.01H0Z" style="fill:#fff;fill-opacity:1;fill-rule:nonzero;stroke:none" transform="matrix(1.33333 0 0 -1.33333 0 129.373)"/><path d="M0 0h1.34v-3.55h3.97V0h1.34v-8.359H5.31V-4.7H1.34v-3.659H0Z" style="fill:#00adee;fill-opacity:1;fill-rule:nonzero;stroke:none" transform="matrix(1.33333 0 0 -1.33333 36.253 102.987)"/><g clip-path="url(#a)" transform="matrix(1.33333 0 0 -1.33333 0 129.373)"><path d="M0 0c-.09 1.051-.81 1.721-1.97 1.721-1.11 0-1.88-.58-2.03-1.721Zm-5.34-.68c0 2.031 1.36 3.43 3.34 3.43 2.1 0 3.37-1.55 3.21-3.76h-5.25c.05-1.28.84-2.01 2.12-2.01.92 0 1.52.31 1.85.951l1.19-.181C.59-3.47-.45-4.1-1.94-4.1-4-4.109-5.34-2.75-5.34-.68" style="fill:#00adee;fill-opacity:1;fill-rule:nonzero;stroke:none" transform="translate(41.2 15.42)"/><path d="M0 0c0 1.44-.84 2.33-2.07 2.33-1.21 0-2.04-.88-2.04-2.33 0-1.47.83-2.34 2.07-2.34C-.83-2.35 0-1.46 0 0m-5.4 0c0 2.28 1.39 3.43 3.03 3.43 1.04 0 1.96-.51 2.34-1.42V3.3h1.29v-6.59H-.03v1.25c-.37-.89-1.3-1.41-2.33-1.41C-4-3.46-5.4-2.29-5.4 0" style="fill:#00adee;fill-opacity:1;fill-rule:nonzero;stroke:none" transform="translate(49.6 14.74)"/><path d="M53.34 20.19h1.31v-8.75h-1.31z" style="fill:#00adee;fill-opacity:1;fill-rule:nonzero;stroke:none"/><path d="M0 0v2.96h-.96v1H0v1.21l1.3.28V3.96h1.95v-1H1.3V.14c0-1.36.36-1.84 1.36-1.84.13 0 .28.02.53.06l.17-1a4.4 4.4 0 0 0-.9-.09C.78-2.73 0-2.021 0 0" style="fill:#00adee;fill-opacity:1;fill-rule:nonzero;stroke:none" transform="translate(57.41 14.07)"/><path d="M0 0h1.29v-3.351c.27.771.98 1.321 2.16 1.321 1.74 0 2.67-.95 2.67-3.14v-3.58H4.83v3.479c0 1.481-.55 2.121-1.78 2.121-1.21 0-1.76-.79-1.76-2.27v-3.33H0Z" style="fill:#00adee;fill-opacity:1;fill-rule:nonzero;stroke:none" transform="translate(62.61 20.19)"/><path d="M75.23 19.79h1.34v-8.359h-1.34z" style="fill:#00adee;fill-opacity:1;fill-rule:nonzero;stroke:none"/><path d="M0 0h1.29v-1.2C1.59-.38 2.34.12 3.45.12c1.82 0 2.67-1.05 2.67-3.14V-6.6H4.83v3.48C4.83-1.68 4.28-1 3.05-1 1.8-1 1.29-1.819 1.29-3.27V-6.6H0Z" style="fill:#00adee;fill-opacity:1;fill-rule:nonzero;stroke:none" transform="translate(79.13 18.04)"/><path d="m0 0 1.181.32c.319-.6 1-.92 1.929-.92 1.031 0 1.58.32 1.58.92 0 1.51-4.4.14-4.4 2.91 0 1.13 1.2 1.89 2.731 1.89 1.2 0 2.41-.6 2.809-1.51L4.681 3.3c-.281.49-.92.76-1.63.76-.92 0-1.481-.31-1.481-.85C1.57 1.71 6 3.09 6 .36 6-.91 4.881-1.71 3.11-1.71 1.62-1.71.41-1.04 0 0" style="fill:#00adee;fill-opacity:1;fill-rule:nonzero;stroke:none" transform="translate(87.1 13.03)"/><path d="M0 0v3.59h1.29V.1c0-1.43.521-2.11 1.771-2.11S4.82-1.189 4.82.271V3.6h1.29v-6.61H4.82v1.2c-.29-.82-1.049-1.33-2.15-1.33C.851-3.14 0-2.08 0 0" style="fill:#00adee;fill-opacity:1;fill-rule:nonzero;stroke:none" transform="translate(94.97 14.45)"/><path d="M0 0h1.29v-1.109C1.54-.41 2.24.24 3.61.04l-.139-1.25C1.99-.93 1.29-1.729 1.29-3.35v-3.27H0Z" style="fill:#00adee;fill-opacity:1;fill-rule:nonzero;stroke:none" transform="translate(103.56 18.04)"/><path d="M0 0c0 1.44-.84 2.33-2.069 2.33-1.211 0-2.04-.88-2.04-2.33 0-1.47.829-2.34 2.069-2.34C-.83-2.35 0-1.46 0 0m-5.41 0c0 2.28 1.39 3.43 3.03 3.43 1.04 0 1.96-.51 2.34-1.42V3.3h1.29v-6.59H-.04v1.25c-.37-.89-1.3-1.41-2.33-1.41C-4.01-3.46-5.41-2.29-5.41 0" style="fill:#00adee;fill-opacity:1;fill-rule:nonzero;stroke:none" transform="translate(113.55 14.74)"/><path d="M0 0h1.29v-1.2C1.59-.38 2.34.12 3.45.12c1.82 0 2.67-1.05 2.67-3.14V-6.6H4.83v3.48C4.83-1.68 4.28-1 3.05-1 1.8-1 1.29-1.819 1.29-3.27V-6.6H0Z" style="fill:#00adee;fill-opacity:1;fill-rule:nonzero;stroke:none" transform="translate(117.29 18.04)"/><path d="M0 0c0 2 1.359 3.43 3.27 3.43 1.66 0 2.66-.76 3.07-2.26L5.229.95c-.319.94-.939 1.39-1.91 1.39C2.12 2.34 1.29 1.39 1.29.01c0-1.37.83-2.32 2.029-2.32.901 0 1.591.51 1.881 1.37l1.11-.22c-.36-1.42-1.47-2.26-3.05-2.26C1.359-3.43 0-2 0 0" style="fill:#00adee;fill-opacity:1;fill-rule:nonzero;stroke:none" transform="translate(125.28 14.74)"/><path d="M0 0c-.09 1.051-.811 1.721-1.971 1.721C-3.08 1.721-3.851 1.141-4 0Zm-5.34-.68c0 2.031 1.36 3.43 3.34 3.43 2.1 0 3.37-1.55 3.21-3.76h-5.25c.05-1.28.84-2.01 2.12-2.01.92 0 1.52.31 1.85.951l1.19-.181C.59-3.47-.45-4.1-1.94-4.1-4-4.109-5.34-2.75-5.34-.68" style="fill:#00adee;fill-opacity:1;fill-rule:nonzero;stroke:none" transform="translate(138.53 15.42)"/><path d="M99.88 85.74h56.42V29.32H99.88Z" style="fill:#00adee;fill-opacity:1;fill-rule:nonzero;stroke:none"/><path d="M0 0c-.6 0-1.439.03-1.93.2-.59.2-1.099.6-1.65 1.02-.279.21-.56.43-.859.63-.371.25-.681.36-.981.36-.399 0-.78-.21-1.26-.7-.639-.66-1.65-2.14-2.059-2.75-.021-.04-.061-.08-.111-.08-.1 0-.1.13-.1.17-.02 1.7-.289 11-.47 13.77-.08 1.23-.47 1.99-1 1.99-.43 0-1.059-.57-1.46-2.17C-12.899 8.37-15.069-.7-16-5.3c-.029-.13-.17-.13-.2 0-.1.47-.199 1-.289 1.45-.281 1.42-.511 2.64-1 3.32-.54.77-1.351.81-2.311.17-.22-.15-.429-.32-.649-.51-.631-.54-1.33-1.15-2.511-1.15h-11.479l-.281-1.52h12.071c1.239 0 2.379.71 3.069 1.2.351.25.58.4.78.4.271 0 .39-.27.481-.67.049-.2.109-.48.179-.79.23-1.05.571-2.71 1.01-3.81.2-.51.51-.79.851-.79.529 0 1.059.62 1.369 1.59.41 1.29 2.841 11.87 3.87 16.3.051.18.061.29.07.29.01.08.06.13.13.13.05 0 .111-.04.12-.14v-.02c.071-4.49.29-12.36.63-13.17.18-.44.46-.68.82-.68.411 0 .89.32 1.25.83.17.26.39.59.63.94.58.87 1.241 1.85 1.43 2.06.3.31.63.31 1.101-.02.069-.05.149-.11.25-.18C-4.1-.43-3.25-.94-2.3-1.2c.63-.18 1.441-.21 2.01-.21.37 0 .761.01.87.02L.851.02C.721.01.351 0 0 0m-30.6 8.23c2.19-.12 1.51-4.69-.81-4.56-2.39.14-1.61 4.69.81 4.56M-34.04.18l.67 3.6c.261-.52.99-1.17 2.16-1.17 2.11 0 3.41 1.65 3.54 3.57.141 2.05-1.059 3.23-2.46 3.23-1.21 0-2.03-.59-2.45-1.2l.02.09c.13.63-.4.98-.86.98h-.45s-1.23-7.03-1.4-7.87c-.2-1 .61-1.23.86-1.23zm-2.34 9.09h-.42s-.62-3.58-.7-3.99c-.149-.88-.569-1.48-1.76-1.48-.679 0-1.33.41-1.179 1.32.059.35.509 2.96.549 3.17.12.71-.48.98-.969.98h-.38c-.091-.55-.511-2.84-.66-3.74-.061-.36-.08-.73-.061-.97.15-1.21 1.21-1.96 2.54-1.96 2.28 0 3.141 1.2 3.42 2.61.08.47.521 2.83.55 3.07.08.72-.5.99-.93.99m-9.109-1.23c-.2-.07-.481-.09-.971-.09h-1.1l.52 2.92h1.431c1.739 0 1.599-2.35.12-2.83m-.62-4.17c-.181-.04-.481-.07-1.101-.07h-1.069l.54 3.06h1.59c2.099 0 1.91-2.52.04-2.99m3.46 5.85c0 1.48-.951 2.16-2.621 2.16h-3.219l-1.631-9.13h2.95c.67 0 1.311.02 1.681.1 1.649.35 2.319 1.55 2.46 2.44.179 1.22-.591 2.03-1.46 2.23.659.13 1.84.82 1.84 2.2m19.58-1.37c2.369-.14 1.599-4.68-.821-4.55-2.179.12-1.5 4.68.821 4.55M-24.3 2.61c1.28 0 1.981.57 2.39 1.22l-.02-.1c-.12-.61.38-.98.861-.98h.409l1.15 6.53h-1.42l-.19-1c-.25.52-.98 1.13-2.15 1.13-2.06 0-3.29-1.7-3.49-3.51-.25-2.08 1.09-3.29 2.46-3.29" style="fill:#fff;fill-opacity:1;fill-rule:nonzero;stroke:none" transform="translate(152.72 68.49)"/><path d="M0 0c-.76 0-1.49.15-2.19.42v-22.57h4.38V.42C1.5.15.76 0 0 0m23.75-1.29-6.56-16.05L9.93.42H5.12l9.85-22.57h4.45L29.34.42h-3.05c-1.11 0-2.12-.67-2.54-1.71m17.43-17.58c-4.22 0-7.06 3-7.06 8.01 0 4.97 2.84 7.97 6.98 7.97 4.18 0 7.06-3.04 7.06-7.97 0-4.98-2.84-8.01-6.98-8.01M48.05.42V-4C46.75-.88 43.59.85 40.04.85c-5.6 0-10.34-3.94-10.34-11.72 0-7.81 4.77-11.8 10.38-11.8 3.51 0 6.71 1.78 7.97 4.81v-2.06c0-1.21.98-2.2 2.2-2.2h2.22V.42Zm-64.21.39c-3.79 0-6.35-1.7-7.38-4.5v4.1h-2.22a2.2 2.2 0 0 1-2.2-2.2v-20.37h4.42v11.37c0 4.97 1.74 7.77 6 7.77 4.18 0 6.08-2.33 6.08-7.26v-11.88h4.42v12.24C-7.04-2.78-9.92.81-16.16.81" style="fill:#00adee;fill-opacity:1;fill-rule:nonzero;stroke:none" transform="translate(38.66 51.47)"/><path d="M0 0c-1.47 0-2.66 1.18-2.66 2.64S-1.47 5.28 0 5.28 2.66 4.1 2.66 2.64 1.47 0 0 0m0 8.17c-3.08 0-5.58-2.48-5.58-5.53S-3.08-2.89 0-2.89 5.58-.41 5.58 2.64 3.08 8.17 0 8.17" style="fill:#fbae17;fill-opacity:1;fill-rule:nonzero;stroke:none" transform="translate(38.66 60.47)"/></g></svg>